<svg width="237" height="44" viewBox="0 0 237 44" fill="none" xmlns="http://www.w3.org/2000/svg">
<rect width="237" height="44" rx="8" fill="#1A1A1A"/>
<g clip-path="url(#clip0_86_23287)">
<path d="M25.9817 16.2881C24.6779 15.9851 23.3219 15.9851 22.018 16.2881C21.2649 15.8262 20.69 15.6139 20.2719 15.5243C20.0934 15.484 19.9108 15.4651 19.7279 15.4678C19.6446 15.47 19.5618 15.48 19.4804 15.4977L19.4697 15.4998L19.4655 15.5019H19.4623L19.6084 16.015L19.4623 15.503C19.3873 15.5242 19.3179 15.5615 19.259 15.6124C19.2 15.6632 19.1529 15.7264 19.1209 15.7974C18.8062 16.5021 18.7463 17.2944 18.9513 18.0385C18.4203 18.682 18.1309 19.491 18.1332 20.3254C18.1332 21.9819 18.6217 23.0955 19.4548 23.8113C20.0383 24.3126 20.7465 24.5793 21.4569 24.7318C21.3452 25.0601 21.303 25.4081 21.3332 25.7537V26.3915C20.8991 26.4822 20.5983 26.4534 20.3839 26.383C20.1161 26.2945 19.9103 26.1163 19.7129 25.8603C19.6098 25.7223 19.5137 25.5792 19.4249 25.4315L19.3641 25.3323C19.2874 25.2047 19.2077 25.0788 19.1252 24.9547C18.9225 24.655 18.6217 24.2795 18.1353 24.1515L17.6191 24.0161L17.3481 25.0486L17.8644 25.1841C17.9497 25.2054 18.0607 25.2854 18.2431 25.5531C18.3133 25.6588 18.3809 25.7662 18.4457 25.8753L18.5183 25.9926C18.6185 26.1547 18.7337 26.3339 18.8671 26.5089C19.1369 26.8609 19.5049 27.2161 20.0511 27.3963C20.4244 27.5201 20.8489 27.5499 21.3332 27.4753V29.4667C21.3332 29.6082 21.3894 29.7438 21.4894 29.8438C21.5894 29.9439 21.7251 30.0001 21.8665 30.0001H26.1332C26.2747 30.0001 26.4103 29.9439 26.5103 29.8438C26.6104 29.7438 26.6665 29.6082 26.6665 29.4667V25.6662C26.6665 25.3302 26.6516 25.0219 26.5567 24.735C27.2639 24.5857 27.9668 24.319 28.5471 23.8177C29.3791 23.0966 29.8665 21.9723 29.8665 20.3062V20.3051C29.8639 19.4776 29.5744 18.6765 29.0473 18.0385C29.2521 17.2947 29.1922 16.5029 28.8777 15.7985C28.846 15.7274 28.7991 15.6641 28.7404 15.613C28.6816 15.562 28.6123 15.5244 28.5375 15.503L28.3913 16.015C28.5375 15.503 28.5364 15.503 28.5353 15.503L28.5332 15.5019L28.5289 15.4998L28.5193 15.4977C28.493 15.4908 28.4663 15.4855 28.4393 15.4817C28.3835 15.4735 28.3272 15.4689 28.2708 15.4678C28.0879 15.4651 27.9053 15.4841 27.7268 15.5243C27.3097 15.6139 26.7348 15.8262 25.9817 16.2881Z" fill="white"/>
</g>
<path d="M44.92 26.12C44.04 26.12 43.276 25.94 42.628 25.58C41.98 25.22 41.48 24.716 41.128 24.068C40.776 23.412 40.6 22.64 40.6 21.752C40.6 20.864 40.772 20.084 41.116 19.412C41.468 18.732 41.952 18.2 42.568 17.816C43.192 17.432 43.908 17.24 44.716 17.24C45.348 17.24 45.92 17.36 46.432 17.6C46.952 17.84 47.376 18.172 47.704 18.596C48.04 19.02 48.244 19.512 48.316 20.072H47.332C47.252 19.48 46.976 19.008 46.504 18.656C46.04 18.304 45.456 18.128 44.752 18.128C44.12 18.128 43.568 18.28 43.096 18.584C42.624 18.88 42.256 19.296 41.992 19.832C41.736 20.368 41.608 21 41.608 21.728C41.608 22.456 41.74 23.084 42.004 23.612C42.276 24.132 42.664 24.532 43.168 24.812C43.68 25.092 44.292 25.232 45.004 25.232C45.492 25.232 45.928 25.164 46.312 25.028C46.696 24.884 47.044 24.664 47.356 24.368L48.34 24.728C47.9 25.192 47.392 25.54 46.816 25.772C46.248 26.004 45.616 26.12 44.92 26.12ZM47.356 24.728V21.932L47.728 22.304H44.992V21.44H48.34V24.728H47.356ZM50.1592 26V19.88H51.1192V26H50.1592ZM50.0872 18.488V17.36H51.1912V18.488H50.0872ZM55.4666 26.108C54.7866 26.108 54.2906 25.956 53.9786 25.652C53.6746 25.34 53.5226 24.892 53.5226 24.308V18.452L54.4826 18.092V24.296C54.4826 24.64 54.5706 24.892 54.7466 25.052C54.9226 25.212 55.2106 25.292 55.6106 25.292C55.7706 25.292 55.9066 25.284 56.0186 25.268C56.1386 25.244 56.2346 25.216 56.3066 25.184V26C56.2266 26.032 56.1106 26.056 55.9586 26.072C55.8146 26.096 55.6506 26.108 55.4666 26.108ZM52.2626 20.696V19.88H56.3066V20.696H52.2626ZM57.614 26V17.36H58.598V26H57.614ZM63.398 26V17.36H64.382V26H63.398ZM58.118 21.068H63.83V21.932H58.118V21.068ZM68.37 26.12C67.97 26.12 67.614 26.04 67.302 25.88C66.99 25.712 66.746 25.48 66.57 25.184C66.394 24.88 66.306 24.532 66.306 24.14V19.88H67.266V23.888C67.266 24.352 67.378 24.7 67.602 24.932C67.834 25.164 68.162 25.28 68.586 25.28C68.97 25.28 69.31 25.192 69.606 25.016C69.902 24.84 70.134 24.596 70.302 24.284C70.478 23.964 70.566 23.6 70.566 23.192L70.722 24.644C70.522 25.1 70.21 25.46 69.786 25.724C69.362 25.988 68.89 26.12 68.37 26.12ZM70.626 26V24.56H70.566V19.88H71.526V26H70.626ZM76.4684 26.108C75.8924 26.108 75.4084 25.968 75.0164 25.688C74.6244 25.408 74.3564 25.012 74.2124 24.5L74.3444 24.476V26H73.4444V17.36H74.4044V21.308L74.2724 21.272C74.4244 20.8 74.7004 20.432 75.1004 20.168C75.5084 19.896 75.9924 19.76 76.5524 19.76C77.0964 19.76 77.5684 19.892 77.9684 20.156C78.3764 20.42 78.6924 20.788 78.9164 21.26C79.1404 21.732 79.2524 22.284 79.2524 22.916C79.2524 23.556 79.1364 24.116 78.9044 24.596C78.6724 25.076 78.3484 25.448 77.9324 25.712C77.5164 25.976 77.0284 26.108 76.4684 26.108ZM76.3244 25.268C76.9324 25.268 77.4084 25.06 77.7524 24.644C78.0964 24.22 78.2684 23.644 78.2684 22.916C78.2684 22.196 78.0964 21.632 77.7524 21.224C77.4084 20.808 76.9324 20.6 76.3244 20.6C75.7164 20.6 75.2364 20.812 74.8844 21.236C74.5324 21.652 74.3564 22.224 74.3564 22.952C74.3564 23.664 74.5324 24.228 74.8844 24.644C75.2364 25.06 75.7164 25.268 76.3244 25.268Z" fill="white"/>
<path d="M207.667 21.3333V22.6666H215.667L212 26.3333L212.947 27.28L218.227 22L212.947 16.72L212 17.6666L215.667 21.3333H207.667Z" fill="white"/>
<defs>
<clipPath id="clip0_86_23287">
<rect width="16" height="16" fill="white" transform="translate(16 14)"/>
</clipPath>
</defs>
</svg>
